name D:\school\WTK\thesis\model\3dpredictsim\Results\Final\Fal_s1_bCst_ig1_v14.mot
datacolumns 126
datarows 4
range 0.00000000 0.03109294
endheader
time	pelvis_tilt	pelvis_list	pelvis_rotation	pelvis_tx	pelvis_ty	pelvis_tz	hip_flexion_l	hip_adduction_l	hip_rotation_l	hip_flexion_r	hip_adduction_r	hip_rotation_r	knee_angle_l	knee_angle_r	ankle_angle_l	ankle_angle_r	subtalar_angle_l	subtalar_angle_r	mtp_angle_l	mtp_angle_r	lumbar_extension	lumbar_bending	lumbar_rotation	arm_flex_l	arm_add_l	arm_rot_l	arm_flex_r	arm_add_r	arm_rot_r	elbow_flex_l	elbow_flex_r	pro_sup_l	pro_sup_r	glut_med1_l/activation	glut_med2_l/activation	glut_med3_l/activation	glut_min1_l/activation	glut_min2_l/activation	glut_min3_l/activation	semimem_l/activation	semiten_l/activation	bifemlh_l/activation	bifemsh_l/activation	sar_l/activation	add_long_l/activation	add_brev_l/activation	add_mag1_l/activation	add_mag2_l/activation	add_mag3_l/activation	tfl_l/activation	pect_l/activation	grac_l/activation	glut_max1_l/activation	glut_max2_l/activation	glut_max3_l/activation	iliacus_l/activation	psoas_l/activation	quad_fem_l/activation	gem_l/activation	peri_l/activation	rect_fem_l/activation	vas_med_l/activation	vas_int_l/activation	vas_lat_l/activation	med_gas_l/activation	lat_gas_l/activation	soleus_l/activation	tib_post_l/activation	flex_dig_l/activation	flex_hal_l/activation	tib_ant_l/activation	per_brev_l/activation	per_long_l/activation	per_tert_l/activation	ext_dig_l/activation	ext_hal_l/activation	ercspn_l/activation	intobl_l/activation	extobl_l/activation	glut_med1_r/activation	glut_med2_r/activation	glut_med3_r/activation	glut_min1_r/activation	glut_min2_r/activation	glut_min3_r/activation	semimem_r/activation	semiten_r/activation	bifemlh_r/activation	bifemsh_r/activation	sar_r/activation	add_long_r/activation	add_brev_r/activation	add_mag1_r/activation	add_mag2_r/activation	add_mag3_r/activation	tfl_r/activation	pect_r/activation	grac_r/activation	glut_max1_r/activation	glut_max2_r/activation	glut_max3_r/activation	iliacus_r/activation	psoas_r/activation	quad_fem_r/activation	gem_r/activation	peri_r/activation	rect_fem_r/activation	vas_med_r/activation	vas_int_r/activation	vas_lat_r/activation	med_gas_r/activation	lat_gas_r/activation	soleus_r/activation	tib_post_r/activation	flex_dig_r/activation	flex_hal_r/activation	tib_ant_r/activation	per_brev_r/activation	per_long_r/activation	per_tert_r/activation	ext_dig_r/activation	ext_hal_r/activation	ercspn_r/activation	intobl_r/activation	extobl_r/activation	
          0.00000000	         -8.31500963	         -2.12202957	          4.84208257	          0.00000000	          0.91240190	         -0.00257170	        -12.97548324	         -1.18325585	          8.39938169	         35.17060050	          2.52193030	         -1.94355969	         -5.29022774	        -11.39323047	         -1.29325018	          8.15775072	          7.50550336	         -6.34657919	         22.61936073	         -0.12826270	          2.45479289	          0.30954515	         -1.92001279	          5.68783898	        -13.46159485	         17.24232311	         -5.81227753	        -13.59507275	          5.18702126	         38.03668489	         17.69498762	         86.51662706	         86.51662706	          0.21951835	          0.11091051	          0.08566273	          0.24124891	          0.18506625	          0.12273190	          0.05000087	          0.05000040	          0.05000024	          0.07648384	          0.09458039	          0.07433995	          0.05000089	          0.05000088	          0.05000253	          0.05000129	          0.47470133	          0.05000563	          0.05000220	          0.05003974	          0.05001959	          0.05000516	          0.32377417	          0.67126002	          0.05086255	          0.05001461	          0.07466772	          0.20978691	          0.06008320	          0.05000903	          0.05000763	          0.30238603	          0.40884270	          0.28206871	          0.29214174	          0.30806365	          0.40279126	          0.05000004	          0.06876541	          0.13489424	          0.05000026	          0.05000006	          0.05000023	          0.05000001	          0.05000004	          0.05000005	          0.11523406	          0.05000016	          0.05000830	          0.05000016	          0.05000019	          0.05000039	          0.24294479	          0.06346883	          0.05863742	          0.05000023	          0.05000097	          0.08915560	          0.12889242	          0.23441516	          0.17093023	          0.12440422	          0.05863692	          0.05861371	          0.08423888	          0.05000684	          0.10187865	          0.12360012	          0.05000024	          0.05000035	          0.32595343	          0.05037604	          0.05000086	          0.05000618	          0.10886783	          0.10779582	          0.09474989	          0.05863690	          0.05863687	          0.05863691	          0.05000010	          0.05000056	          0.05000067	          0.52478258	          0.34836964	          0.20664762	          0.15862591	          0.51647979	          0.30252336	          0.07859388	          0.10421576	          0.11667122	
          0.01036431	         -8.30327229	         -2.27867555	          5.16509768	          0.01712518	          0.91115724	         -0.00236864	        -12.84225154	         -1.49621346	          8.22151774	         34.62353481	          2.85615178	         -1.75053955	         -7.25966673	        -11.29668928	         -2.05132034	          7.55510405	          8.45396190	         -6.72622605	         23.59472653	         -0.10468679	          2.63813754	          0.54892024	         -1.95818210	          5.36138991	        -13.47976473	         17.45453734	         -6.52984640	        -13.60323216	          4.76857719	         39.15377778	         17.33830965	         86.51662706	         86.51662706	          0.18718474	          0.09457399	          0.07304507	          0.20571482	          0.15780705	          0.10465419	          0.05000085	          0.05000030	          0.05000020	          0.06521819	          0.08064969	          0.14073125	          0.15136910	          0.05001179	          0.05000417	          0.05000063	          0.46023753	          0.09473932	          0.05000360	          0.05000158	          0.05000086	          0.05000051	          0.27608392	          0.58916160	          0.05000021	          0.05000182	          0.06366966	          0.17888643	          0.08195406	          0.16126372	          0.15252293	          0.25784608	          0.34862223	          0.24052140	          0.24911141	          0.26268814	          0.34346279	          0.05000004	          0.05863681	          0.11754337	          0.05000020	          0.05000005	          0.05000021	          0.05505145	          0.06467294	          0.05000011	          0.09826082	          0.05863695	          0.05000026	          0.08406753	          0.05863733	          0.05247987	          0.21528936	          0.05412038	          0.05000051	          0.05863556	          0.05013287	          0.07602367	          0.10990734	          0.25700894	          0.20670017	          0.12939859	          0.05000044	          0.05000223	          0.07183128	          0.05863674	          0.09250033	          0.14239151	          0.05000278	          0.05000296	          0.60138060	          0.15262532	          0.05001236	          0.06876625	          0.19908463	          0.19969848	          0.16913324	          0.05000000	          0.05000001	          0.05000000	          0.05000020	          0.05000078	          0.05000039	          0.57798833	          0.29705815	          0.21227376	          0.41111724	          0.56653285	          0.25796596	          0.06701743	          0.08886532	          0.09948614	
          0.02072863	         -8.28642858	         -2.43108099	          5.46373337	          0.03449506	          0.90989974	         -0.00217485	        -12.61686694	         -1.79613828	          8.03295440	         34.00329844	          3.14573110	         -1.50106440	         -9.38895726	        -11.84256663	         -2.96180575	          6.80382123	          9.35912422	         -7.12214575	         24.39939777	         -0.14264291	          2.83719076	          0.79356190	         -1.98516956	          4.97183768	        -13.49972908	         17.61765595	         -7.25759895	        -13.61356184	          4.38928340	         40.23414672	         17.00608577	         86.51662706	         86.51662706	          0.24347117	          0.08064377	          0.06228594	          0.17541448	          0.13456298	          0.08923921	          0.05000116	          0.05000097	          0.05000178	          0.05561195	          0.06877070	          0.17777675	          0.25538915	          0.08289750	          0.05050425	          0.11800114	          0.42445235	          0.08078623	          0.05516073	          0.05002627	          0.05001680	          0.05001559	          0.23541818	          0.51316662	          0.05863711	          0.05001204	          0.05429151	          0.15253737	          0.12280691	          0.13751112	          0.13005780	          0.21986665	          0.29727193	          0.20509380	          0.21241862	          0.22399572	          0.29287263	          0.05000004	          0.05000030	          0.14244965	          0.05000014	          0.05000009	          0.05000022	          0.07414390	          0.05589594	          0.05000029	          0.25763311	          0.05000013	          0.31642183	          0.07168491	          0.05000047	          0.24543063	          0.19758667	          0.05000010	          0.05000112	          0.05000005	          0.05000039	          0.08862162	          0.26387211	          0.21915361	          0.17625755	          0.15242716	          0.05000098	          0.06884436	          0.06125665	          0.05000017	          0.14574519	          0.13407250	          0.05863704	          0.05394558	          0.51280034	          0.13014453	          0.25404498	          0.05863736	          0.16976061	          0.17028404	          0.14422088	          0.06777023	          0.06876565	          0.05980029	          0.05863703	          0.05863695	          0.05863706	          0.49285355	          0.31875837	          0.18100701	          0.35056187	          0.54691573	          0.21996891	          0.06083627	          0.10550131	          0.08483234	
          0.03109294	         -8.26661307	         -2.58290232	          5.72961112	          0.05195836	          0.90865722	         -0.00197292	        -12.28553075	         -2.08288923	          7.83996393	         33.28244509	          3.40702421	         -1.23692040	        -11.68143204	        -12.46401153	         -4.01544798	          6.23305041	         10.19777497	         -7.50822606	         24.94557222	         -0.14999885	          3.03853368	          1.04695647	         -2.00355528	          4.54082222	        -13.52115714	         17.73500895	         -7.95400939	        -13.62615192	          4.06854308	         41.26037230	         16.66739217	         86.51662706	         86.51662706	          0.21097233	          0.06876540	          0.05311159	          0.24726359	          0.11474267	          0.07609481	          0.05000247	          0.05000026	          0.05000016	          0.05000020	          0.05864137	          0.17239677	          0.27069303	          0.07068846	          0.05000852	          0.10062077	          0.47317795	          0.06888745	          0.05000132	          0.05000194	          0.05000112	          0.05000054	          0.20074230	          0.47995258	          0.05000034	          0.05000113	          0.05000061	          0.13006942	          0.11091679	          0.11725808	          0.11091167	          0.18748139	          0.25348527	          0.17488451	          0.18113047	          0.19100245	          0.24973409	          0.09373995	          0.12997398	          0.14186417	          0.05000089	          0.13999005	          0.05000171	          0.09803111	          0.05000001	          0.05000005	          0.29079594	          0.31932343	          0.45371440	          0.06674153	          0.21565770	          0.20928115	          0.16848317	          0.11320356	          0.07376057	          0.09490251	          0.05863680	          0.07556815	          0.22500510	          0.18687356	          0.15029612	          0.16624852	          0.05000054	          0.05870432	          0.12834625	          0.24441089	          0.21256946	          0.15889172	          0.05000027	          0.05000020	          0.43727025	          0.11097575	          0.21662637	          0.05000039	          0.14475577	          0.14520211	          0.12297791	          0.05778804	          0.05863685	          0.05099201	          0.05000011	          0.05000023	          0.05000030	          0.65398170	          0.40618925	          0.20988195	          0.61593344	          0.63662389	          0.37305434	          0.08274356	          0.09457494	          0.07233697	
